<svg width="59" height="21" viewBox="0 0 59 21" fill="none" xmlns="http://www.w3.org/2000/svg">
<path d="M10.48 9.276H17.844V18.124C15.436 19.5613 12.944 20.28 10.368 20.28C7.43733 20.28 5.06667 19.3467 3.256 17.48C1.44533 15.6133 0.54 13.196 0.54 10.228C0.54 7.26 1.47333 4.84267 3.34 2.976C5.20667 1.10933 7.44667 0.176 10.06 0.176C12.692 0.176 15.184 0.894666 17.536 2.332V4.964H17.424C15.128 3.41467 12.86 2.64 10.62 2.64C8.39867 2.64 6.588 3.312 5.188 4.656C3.788 6 3.088 7.82933 3.088 10.144C3.088 12.44 3.76933 14.3067 5.132 15.744C6.49467 17.1627 8.352 17.872 10.704 17.872C12.4587 17.872 14.092 17.4613 15.604 16.64V11.572H10.48V9.276ZM37.7839 14.512C37.7839 18.1707 35.3853 20 30.5879 20H22.5519V0.456H30.4199C32.4173 0.456 33.9573 0.913333 35.0399 1.828C36.1413 2.74267 36.6919 3.97467 36.6919 5.524C36.6919 7.57733 35.7959 9.00533 34.0039 9.808V9.892C36.5239 10.6947 37.7839 12.2347 37.7839 14.512ZM25.0999 17.62H30.3359C32.1466 17.62 33.4253 17.34 34.1719 16.78C34.9373 16.22 35.3199 15.4267 35.3199 14.4C35.3199 12.272 33.6679 11.208 30.3639 11.208H25.0999V17.62ZM25.0999 8.912H29.7479C31.4093 8.912 32.5759 8.632 33.2479 8.072C33.9199 7.512 34.2559 6.76533 34.2559 5.832C34.2559 4.88 33.8919 4.14267 33.1639 3.62C32.4546 3.09733 31.4746 2.836 30.2239 2.836H25.0999V8.912Z" fill="white"/>
<path d="M55.798 0.456H58.542L50.478 20H47.454L39.39 0.456H42.162L48.91 17.396H49.022L55.798 0.456Z" fill="#D76A1D"/>
</svg>
